<?xml version="1.0" standalone="no"?>
<!DOCTYPE svg PUBLIC "-//W3C//DTD SVG 20010904//EN"
 "http://www.w3.org/TR/2001/REC-SVG-20010904/DTD/svg10.dtd">
<svg version="1.0" xmlns="http://www.w3.org/2000/svg"
 width="512.000000pt" height="512.000000pt" viewBox="0 0 512.000000 512.000000"
 preserveAspectRatio="xMidYMid meet">

<g transform="translate(0.000000,512.000000) scale(0.100000,-0.100000)"
fill="#ffb400" stroke="none">
<path d="M1030 5098 c-24 -13 -58 -40 -74 -61 l-31 -39 -3 -200 c-3 -188 -2
-202 19 -244 31 -64 84 -97 165 -102 l64 -4 0 -74 c0 -62 -3 -74 -16 -74 -29
0 -81 -40 -98 -74 -12 -26 -16 -66 -16 -178 l0 -144 -70 -16 c-180 -42 -322
-154 -406 -320 -45 -89 -56 -151 -61 -359 l-5 -195 -29 -16 c-52 -30 -48 -107
6 -128 l25 -10 0 -907 0 -908 -30 -17 c-52 -30 -50 -107 5 -128 l25 -10 0
-232 c0 -128 4 -259 10 -292 28 -172 163 -317 331 -355 71 -17 1042 -14 1104
3 175 47 300 185 325 361 5 39 10 170 10 293 l0 222 24 12 c55 25 56 105 1
130 l-25 11 0 909 0 908 24 12 c55 24 56 105 3 129 -24 11 -24 13 -30 207 -4
175 -8 206 -31 278 -64 199 -231 354 -433 401 l-73 17 0 48 0 48 53 0 c63 0
120 25 164 71 35 38 63 95 63 132 0 44 22 87 51 102 15 8 54 15 87 15 l58 0
24 -57 c33 -80 117 -163 193 -191 78 -29 176 -29 254 0 76 28 160 111 193 191
l24 57 58 0 c33 0 72 -7 87 -15 29 -15 51 -58 51 -102 0 -37 28 -94 63 -132
44 -46 101 -71 165 -71 l52 0 0 -48 0 -48 -72 -17 c-103 -25 -193 -73 -267
-142 -82 -77 -135 -158 -167 -259 -23 -72 -27 -103 -31 -278 -6 -194 -6 -196
-30 -207 -53 -24 -52 -105 3 -129 l24 -12 0 -908 0 -909 -25 -11 c-55 -25 -54
-105 1 -130 l24 -12 0 -222 c0 -123 5 -254 10 -293 25 -175 150 -315 325 -361
62 -17 1033 -20 1104 -3 168 38 303 183 331 355 6 33 10 164 10 292 l0 232 25
10 c55 21 57 98 5 128 l-29 17 -3 383 -3 384 -24 19 c-30 25 -76 24 -101 -1
-19 -19 -20 -33 -20 -405 l0 -385 -737 2 -738 3 -3 908 -2 907 740 0 740 0 0
-384 0 -385 26 -20 c15 -12 33 -21 40 -21 26 0 62 23 73 47 7 16 11 144 11
394 l0 369 25 10 c54 21 58 98 6 128 l-29 16 -5 195 c-5 208 -16 270 -61 359
-84 165 -226 278 -406 320 l-70 16 0 144 c0 112 -4 152 -16 178 -17 34 -69 74
-98 74 -13 0 -16 12 -16 74 l0 74 64 4 c81 5 134 38 165 102 21 42 22 56 19
244 l-3 200 -31 39 c-16 21 -50 48 -74 61 -43 21 -52 22 -360 22 -285 0 -319
-2 -355 -19 -48 -22 -79 -54 -100 -103 -12 -29 -15 -78 -15 -218 0 -201 5
-224 61 -277 43 -40 77 -53 140 -53 l49 0 0 -75 c0 -67 -2 -75 -19 -75 -41 0
-111 -81 -111 -130 0 -17 -6 -20 -43 -20 -56 0 -82 27 -91 95 -21 146 -120
225 -283 225 -52 0 -65 3 -70 18 -33 98 -99 174 -189 217 -51 25 -71 29 -144
29 -72 0 -93 -4 -142 -28 -90 -43 -159 -121 -191 -218 -5 -15 -18 -18 -70 -18
-163 0 -262 -79 -283 -225 -9 -68 -35 -95 -91 -95 -37 0 -43 3 -43 20 0 49
-70 130 -111 130 -17 0 -19 8 -19 75 l0 75 49 0 c63 0 97 13 140 53 56 53 61
76 61 279 0 198 -9 237 -61 285 -55 50 -76 53 -412 53 -305 0 -314 -1 -357
-22z m668 -140 c8 -8 12 -61 12 -173 0 -112 -4 -165 -12 -173 -17 -17 -599
-17 -616 0 -17 17 -17 329 0 346 17 17 599 17 616 0z m2340 0 c8 -8 12 -61 12
-173 0 -112 -4 -165 -12 -173 -17 -17 -599 -17 -616 0 -17 17 -17 329 0 346
17 17 599 17 616 0z m-1410 -384 c201 -84 149 -374 -68 -374 -168 0 -257 192
-147 317 58 66 141 88 215 57z m-1168 -194 l0 -70 -70 0 -70 0 0 70 0 70 70 0
70 0 0 -70z m2340 0 l0 -70 -70 0 -70 0 0 70 0 70 70 0 70 0 0 -70z m-2210
-350 l0 -130 -200 0 -200 0 0 130 0 130 200 0 200 0 0 -130z m2340 0 l0 -130
-200 0 -200 0 0 130 0 130 200 0 200 0 0 -130z m-2059 -322 c140 -69 228 -194
249 -353 6 -44 10 -138 8 -210 l-3 -130 -739 -3 -738 -2 4 192 c6 212 17 265
76 351 37 52 108 119 153 143 100 52 117 54 530 51 l385 -2 75 -37z m2270 26
c144 -43 244 -136 299 -279 20 -53 24 -82 28 -253 l4 -192 -738 2 -739 3 -3
130 c-2 72 2 166 8 210 24 183 138 321 310 376 48 16 100 18 416 18 303 1 369
-2 415 -15z m-2013 -1781 l-3 -908 -737 -3 -738 -2 0 910 0 910 740 0 740 0
-2 -907z m0 -1320 c-4 -244 -5 -261 -27 -310 -13 -29 -44 -72 -71 -97 -81 -76
-82 -76 -646 -76 -472 0 -496 1 -548 20 -64 25 -125 81 -158 148 -22 45 -23
59 -26 310 l-3 262 741 0 742 0 -4 -257z m2340 -5 c-3 -251 -4 -265 -26 -310
-33 -67 -94 -123 -158 -148 -52 -19 -76 -20 -548 -20 -564 0 -565 0 -646 76
-27 25 -58 68 -71 97 -22 49 -24 65 -27 310 l-4 257 742 0 741 0 -3 -262z"/>
<path d="M1278 2297 c-148 -56 -238 -173 -246 -323 -5 -91 16 -165 65 -231 67
-91 123 -114 168 -68 37 36 32 67 -19 124 -53 60 -70 106 -64 177 6 69 45 128
108 162 37 19 56 23 111 20 85 -5 137 -38 174 -111 44 -90 30 -172 -45 -253
-47 -51 -51 -84 -15 -119 34 -35 68 -32 116 12 190 172 143 483 -89 591 -68
32 -202 41 -264 19z"/>
<path d="M3598 2287 c-153 -65 -237 -199 -225 -361 6 -91 34 -153 97 -220 156
-165 413 -149 551 34 51 68 72 142 67 234 -7 129 -74 234 -190 297 -56 29 -73
33 -153 36 -77 3 -98 0 -147 -20z m233 -150 c118 -63 145 -222 56 -324 -101
-115 -283 -88 -348 52 -47 102 3 235 106 281 49 22 135 17 186 -9z"/>
</g>
</svg>
