<?xml version="1.0" standalone="no"?>
<!DOCTYPE svg PUBLIC "-//W3C//DTD SVG 20010904//EN"
 "http://www.w3.org/TR/2001/REC-SVG-20010904/DTD/svg10.dtd">
<svg version="1.0" xmlns="http://www.w3.org/2000/svg"
 width="512.000000pt" height="512.000000pt" viewBox="0 0 512.000000 512.000000"
 preserveAspectRatio="xMidYMid meet">

<g transform="translate(0.000000,512.000000) scale(0.100000,-0.100000)"
fill="#ffb400" stroke="none">
<path d="M2016 4329 c-103 -16 -193 -104 -216 -213 -13 -62 -6 -113 22 -171
13 -26 231 -251 616 -637 l597 -598 -471 0 c-444 0 -472 -1 -487 -18 -10 -10
-17 -35 -17 -55 l0 -37 -60 0 -60 0 0 77 c0 58 -5 87 -21 121 -52 106 -193
144 -290 79 l-34 -23 -105 107 c-120 121 -224 191 -357 239 -92 33 -228 60
-304 60 -45 0 -49 2 -55 28 -17 71 -71 139 -139 175 -57 31 -173 30 -231 0
-54 -29 -117 -101 -132 -151 -9 -29 -12 -336 -12 -1184 l0 -1144 26 -52 c102
-205 408 -187 479 29 l16 46 98 6 c287 19 529 148 682 365 l30 42 42 -24 c89
-51 186 -38 251 35 48 53 56 76 56 165 l0 74 60 0 60 0 0 -35 c0 -22 8 -43 20
-55 20 -20 33 -20 925 -20 l905 0 0 -32 c0 -43 40 -126 76 -160 16 -15 49 -36
74 -47 43 -19 64 -21 411 -21 271 0 368 3 377 12 9 9 12 205 12 819 0 721 -2
809 -16 823 -13 14 -60 16 -362 16 -196 0 -362 -4 -382 -10 -98 -27 -177 -114
-188 -206 l-5 -44 -158 0 -159 0 0 107 0 108 -672 673 c-370 370 -692 684
-715 698 -50 30 -121 42 -187 33z m117 -110 c12 -6 322 -311 690 -678 l667
-666 0 -295 c0 -266 -2 -299 -19 -336 -48 -105 -182 -133 -264 -56 -55 52 -57
62 -57 314 l0 233 -614 615 c-340 340 -620 628 -625 643 -44 115 34 237 151
237 27 0 59 -5 71 -11z m-1543 -851 c30 -15 53 -37 67 -63 l23 -40 -3 -1137
c-2 -1136 -2 -1137 -23 -1165 -75 -101 -201 -98 -271 6 l-23 34 2 1141 3 1141
24 34 c26 36 90 70 131 71 14 0 46 -10 70 -22z m426 -238 c181 -46 345 -155
462 -307 l53 -68 0 -620 0 -619 -33 -51 c-47 -74 -174 -196 -248 -239 -91 -53
-220 -94 -339 -107 -56 -6 -108 -8 -116 -5 -13 5 -15 137 -15 1027 l0 1022 79
-7 c43 -3 114 -15 157 -26z m3744 -995 l0 -735 -316 0 c-309 0 -317 1 -356 22
-24 14 -48 38 -59 60 -18 35 -19 68 -19 653 0 657 -1 644 48 688 46 42 83 46
400 47 l302 0 0 -735z m-2947 635 l27 -31 -2 -610 -3 -611 -28 -24 c-41 -35
-99 -33 -138 5 l-29 29 0 609 c0 561 2 610 18 630 39 51 110 52 155 3z m1237
-343 c0 -177 1 -185 26 -235 81 -162 292 -200 425 -75 76 71 89 117 89 323 l0
170 160 0 160 0 -2 -472 -3 -473 -870 0 -870 0 -3 473 -2 472 445 0 445 0 0
-183z m-990 -297 l0 -360 -60 0 -60 0 0 360 0 360 60 0 60 0 0 -360z"/>
<path d="M3270 2471 c-5 -11 -10 -53 -10 -94 0 -59 4 -80 19 -98 16 -20 23
-22 47 -14 29 10 29 11 32 104 2 60 -1 98 -9 107 -17 21 -66 18 -79 -5z"/>
<path d="M952 2678 c-18 -18 -15 -53 6 -71 16 -15 46 -17 205 -17 181 0 186 1
201 22 20 28 20 43 0 62 -13 13 -46 16 -208 16 -136 0 -195 -3 -204 -12z"/>
<path d="M956 2424 c-9 -8 -16 -24 -16 -34 0 -45 20 -50 219 -50 169 0 190 2
204 18 22 24 21 45 -1 65 -27 25 -382 25 -406 1z"/>
<path d="M957 2172 c-20 -22 -22 -53 -5 -70 9 -9 69 -12 210 -12 185 0 198 1
208 19 14 28 13 38 -10 61 -19 19 -33 20 -203 20 -165 0 -186 -2 -200 -18z"/>
<path d="M970 1927 c-34 -17 -39 -60 -8 -81 18 -13 54 -16 200 -16 165 0 180
2 198 20 24 24 25 39 6 66 -13 17 -29 19 -193 22 -130 2 -185 -1 -203 -11z"/>
<path d="M950 1659 c-16 -29 -4 -68 23 -74 12 -3 103 -4 202 -3 l179 3 15 27
c14 24 14 28 -3 47 -18 20 -30 21 -212 21 -186 0 -194 -1 -204 -21z"/>
<path d="M4572 2748 c-9 -9 -12 -87 -12 -288 0 -267 1 -278 21 -296 19 -17 23
-17 47 -3 l27 15 3 272 c1 177 -1 280 -8 292 -12 23 -59 27 -78 8z"/>
<path d="M4581 2043 c-21 -17 -22 -25 -19 -153 l3 -135 27 -9 c22 -8 32 -6 48
9 18 16 20 30 20 142 0 110 -2 125 -20 143 -24 24 -32 25 -59 3z"/>
</g>
</svg>
