<?xml version="1.0" encoding="UTF-8"?>
<!DOCTYPE svg PUBLIC "-//W3C//DTD SVG 1.1//EN" "http://www.w3.org/Graphics/SVG/1.1/DTD/svg11.dtd">
<svg xmlns="http://www.w3.org/2000/svg" xmlns:xlink="http://www.w3.org/1999/xlink" version="1.1" width="363px" height="603px" style="shape-rendering:geometricPrecision; text-rendering:geometricPrecision; image-rendering:optimizeQuality; fill-rule:evenodd; clip-rule:evenodd">
<g><path style="opacity:0.983" fill="#ffd500" d="M 180.5,0.5 C 194.974,15.3621 202.807,33.3621 204,54.5C 201.856,107.334 199.356,160.167 196.5,213C 199.304,271.241 214.971,325.741 243.5,376.5C 253.609,376.71 263.276,374.543 272.5,370C 286.304,358.897 289.137,345.397 281,329.5C 273.151,318.999 262.651,314.665 249.5,316.5C 254.419,272.146 259.586,227.813 265,183.5C 275.348,122.422 307.181,76.4215 360.5,45.5C 361.5,190.498 361.833,335.498 361.5,480.5C 328.16,480.167 294.827,480.5 261.5,481.5C 251.391,526.753 227.558,562.753 190,589.5C 186.615,593.217 183.615,597.217 181,601.5C 174.833,591.333 166.667,583.167 156.5,577C 127.277,551.228 108.61,519.228 100.5,481C 67.1683,480.5 33.835,480.333 0.5,480.5C 0.166674,335.498 0.500007,190.498 1.5,45.5C 54.6067,76.1424 86.44,121.809 97,182.5C 102.643,227.121 107.81,271.788 112.5,316.5C 91.5437,315.128 79.5437,324.795 76.5,345.5C 77.5945,359.767 84.9278,369.267 98.5,374C 104.333,375.167 110.167,376.333 116,377.5C 116.833,377.167 117.667,376.833 118.5,376.5C 147.867,325.031 163.533,269.698 165.5,210.5C 164.108,170.127 161.942,129.793 159,89.5C 158.333,75.1667 158.333,60.8333 159,46.5C 161.623,28.926 168.79,13.5927 180.5,0.5 Z M 31.5,110.5 C 51.1789,134.215 63.0123,161.548 67,192.5C 70.7238,224.514 74.5571,256.514 78.5,288.5C 78.4302,289.772 78.0968,290.938 77.5,292C 62.5507,300.459 52.5507,312.959 47.5,329.5C 42.2079,330.495 36.8746,330.828 31.5,330.5C 31.5,257.167 31.5,183.833 31.5,110.5 Z M 329.5,110.5 C 330.499,183.665 330.833,256.998 330.5,330.5C 325.125,330.828 319.792,330.495 314.5,329.5C 309.27,312.78 299.104,300.114 284,291.5C 287.42,255.807 291.42,220.14 296,184.5C 300.972,156.899 312.139,132.232 329.5,110.5 Z M 180.5,313.5 C 188.937,338.383 199.603,362.383 212.5,385.5C 199.907,389.94 189.407,397.273 181,407.5C 172.593,397.273 162.093,389.94 149.5,385.5C 162.588,362.661 172.921,338.661 180.5,313.5 Z M 31.5,361.5 C 36.8437,361.334 42.1771,361.501 47.5,362C 56.8209,388.478 75.4875,403.311 103.5,406.5C 100.099,420.972 98.0993,435.638 97.5,450.5C 75.5,450.5 53.5,450.5 31.5,450.5C 31.5,420.833 31.5,391.167 31.5,361.5 Z M 314.5,361.5 C 319.833,361.5 325.167,361.5 330.5,361.5C 330.5,391.167 330.5,420.833 330.5,450.5C 308.49,450.833 286.49,450.5 264.5,449.5C 263.73,435.005 261.73,420.672 258.5,406.5C 286.734,403.254 305.401,388.254 314.5,361.5 Z M 133.5,414.5 C 152.957,418.626 163.623,430.626 165.5,450.5C 153.149,450.832 140.815,450.499 128.5,449.5C 129.325,437.724 130.992,426.057 133.5,414.5 Z M 224.5,414.5 C 227.388,414.22 228.888,415.553 229,418.5C 231.621,429.011 232.787,439.677 232.5,450.5C 220.5,450.5 208.5,450.5 196.5,450.5C 198.013,432.33 207.346,420.33 224.5,414.5 Z M 132.5,482.5 C 143.321,481.505 154.321,481.172 165.5,481.5C 165.667,501.503 165.5,521.503 165,541.5C 149.465,524.43 138.631,504.763 132.5,482.5 Z M 196.5,481.5 C 207.505,481.333 218.505,481.5 229.5,482C 223.471,504.565 212.638,524.398 197,541.5C 196.5,521.503 196.333,501.503 196.5,481.5 Z"/></g>
</svg>
